<svg width="82" height="82" viewBox="0 0 82 82" fill="none" xmlns="http://www.w3.org/2000/svg">
<circle cx="41" cy="41" r="41" fill="white"/>
<circle cx="41" cy="41" r="34.5" fill="white" stroke="black" stroke-width="5"/>
<path d="M70.0818 55.9812H47.0629C44.4697 55.9812 42.291 54.1891 41.6745 51.7642M41.5 50.3625V49.8781M41.5 50.3625C41.5 50.5717 41.5113 50.7783 41.5334 50.9816M41.5 50.3625V50.4495M41.5 50.3625C41.5 50.5707 41.4888 50.7763 41.4669 50.9787M41.5 49.8781V49.6806M41.5 49.8781C41.5 49.9929 41.5019 50.1073 41.5057 50.2212M41.5 49.8781C41.5 49.9926 41.4981 50.1067 41.4944 50.2202M41.5 49.6806V49.1145M41.5 49.6806C41.5 49.8619 41.5019 50.0421 41.5057 50.2212M41.5 49.6806C41.5 49.8614 41.4981 50.0413 41.4944 50.2202M41.5 49.1145C41.5 48.7747 41.5367 48.4398 41.6076 48.1148M41.5 49.1145V48.8746M41.5 49.1145C41.5 48.7747 41.4633 48.4398 41.3924 48.1148M41.6076 48.1148C41.8545 46.9818 42.5158 45.9693 43.4792 45.2941L56.6698 36.0496M41.6076 48.1148C41.5383 48.3717 41.5 48.6272 41.5 48.8746M41.6076 48.1148C41.9078 47.0019 42.79 45.8642 43.662 45.253C44.6072 44.5906 45.2772 44.55 46.4276 44.55L51.0985 44.55M41.6745 51.7642C41.6098 51.5098 41.5623 51.2485 41.5334 50.9816M41.6745 51.7642C41.6952 51.8747 41.7177 51.9845 41.742 52.0937M41.6745 51.7642C41.5803 51.262 41.5231 50.7467 41.5057 50.2212M41.5334 50.9816C41.5363 51.0374 41.5394 51.0931 41.5427 51.1487M41.5334 50.9816C41.5203 50.7303 41.5111 50.4769 41.5057 50.2212M41.5 48.8746C41.5 48.6272 41.4617 48.3717 41.3924 48.1148M41.5 48.8746V44.6295M41.5 44.6295C41.5 42.5272 42.3055 40.5066 43.7477 38.9908L47.5694 34.9742M41.5 44.6295C41.5 42.5272 40.6945 40.5066 39.2523 38.9908L35.2163 34.749M41.5 44.6295V20.525M70.0818 56.0682H47.0629C44.557 56.0682 42.438 54.3946 41.742 52.0937M41.5 50.4495C41.5 50.6863 41.5145 50.9196 41.5427 51.1487M41.5 50.4495C41.5 50.685 41.4856 50.9171 41.4578 51.1451M41.5 50.4495L41.5 74M41.742 52.0937C41.6498 51.7889 41.5825 51.4731 41.5427 51.1487M41.742 52.0937C42.7414 56.5921 46.7195 59.9531 51.4748 59.9531L59.4355 59.9531M41.5427 51.1487C41.8158 55.7797 43.3959 59.6655 46.1357 63.2082C47.6369 65.1494 49.0159 67.2097 49.8217 69.5345L50.8994 72.6437M70.0818 59.9531L59.4355 59.9531M59.4355 59.9531C60.9187 59.9531 62.1211 61.1676 62.1211 62.6656V68.2844M57.6132 69.9313V66.0025C57.6132 65.1189 57.2119 64.2842 56.5244 63.7378L52.2902 60.3725C51.9484 60.1008 51.5261 59.9531 51.0912 59.9531M12.9182 55.9812H35.9371C38.5303 55.9812 40.709 54.1891 41.3255 51.7642M41.3924 48.1148C41.1455 46.9818 40.4842 45.9693 39.5208 45.2941L25.9839 35.8069M41.3924 48.1148C41.0922 47.0019 40.21 45.8642 39.338 45.253C38.3928 44.5906 37.7228 44.55 36.5724 44.55L31.3086 44.55M41.3255 51.7642C41.3904 51.5089 41.438 51.2466 41.4669 50.9787M41.3255 51.7642C41.3048 51.8747 41.2823 51.9845 41.258 52.0937M41.3255 51.7642C41.4197 51.2617 41.477 50.7461 41.4944 50.2202M41.4669 50.9787C41.4641 51.0342 41.461 51.0897 41.4578 51.1451M41.4669 50.9787C41.4799 50.7277 41.489 50.4749 41.4944 50.2202M12.9182 56.0682H35.9371C38.443 56.0682 40.562 54.3946 41.258 52.0937M41.258 52.0937C41.3506 51.7877 41.418 51.4707 41.4578 51.1451M41.258 52.0937C40.2586 56.5921 36.2805 59.9531 31.5252 59.9531L23.5645 59.9531M41.4578 51.1451C41.1835 55.8465 39.5771 59.9019 36.79 63.5282C35.335 65.4213 33.9823 67.4172 33.1714 69.6695L32.1006 72.6437M12.9182 59.9531L23.5645 59.9531M23.5645 59.9531C22.0813 59.9531 20.8789 61.1676 20.8789 62.6656V68.2844M25.3868 69.9313V66.0025C25.3868 65.1189 25.7881 64.2842 26.4756 63.7378L30.7098 60.3725C31.0516 60.1008 31.4739 59.9531 31.9088 59.9531M56.1205 28.5656L62.1211 31.8594M62.1211 31.8594L68.3135 28.5656M62.1211 31.8594V38.9868M50.5178 25.7749C50.0417 25.4917 49.4885 25.5737 49.0124 25.8569C48.5362 26.14 45.9141 27.5979 45.9141 27.5979C45.438 27.8811 45.1447 28.4044 45.1447 28.9708V32.6167C45.1447 33.1831 45.438 33.7065 45.9141 33.9896L47.5694 34.9742M50.5178 25.7749C50.7275 25.8996 51.3469 26.268 51.9745 26.6413M50.5178 25.7749C51.3572 26.2647 53.883 27.8311 53.883 27.8311M50.5178 25.7749C49.6785 25.2851 48.7375 26.0374 47.8964 26.4387C47.3806 26.1293 47.0629 25.5575 47.0629 24.9386V20.9551C47.0629 20.3363 47.3806 19.7645 47.8964 19.4551L51.2168 17.4633C51.7326 17.1539 52.3681 17.1539 52.8839 17.4633C53.3996 17.7727 56.2042 19.4551 56.2042 19.4551C56.72 19.7645 57.0377 20.3363 57.0377 20.9551V24.9386C57.0377 25.5575 56.72 26.1293 56.2042 26.4387L53.883 27.8311M47.2337 20.1913L51.9745 22.8681M51.9745 22.8681L56.8669 20.1913M51.9745 22.8681V26.6413M45.3024 28.2717L49.6785 30.7217M49.6785 30.7217L54.1945 28.2717M49.6785 30.7217V36.0234M37.4244 14.4082L41.4359 16.5859M41.4359 16.5859L45.5756 14.4082M41.4359 16.5859V21.2985M58.6972 42.2009L62.1616 44.1065M62.1616 44.1065L65.7368 42.2009M62.1616 44.1065L62.1616 48.23M26.2866 28.5656L20.286 31.8594M20.286 31.8594L14.0936 28.5656M20.286 31.8594L20.286 38.9868M35.1733 20.1913L30.4325 22.8681M30.4325 22.8681L25.5402 20.1913M30.4325 22.8681V26.6413M37.1047 28.2717L32.7286 30.7217M32.7286 30.7217L28.2126 28.2717M32.7286 30.7217V36.0234M23.7099 42.2009L20.2455 44.1065M20.2455 44.1065L16.6703 42.2009M20.2455 44.1065V48.23M49.7484 52.3H72M33.2516 52.3H11M25.9839 35.8069C26.3135 35.4245 26.5028 34.9294 26.5028 34.407V29.5055C26.5028 28.7441 26.1006 28.0405 25.4478 27.6598L21.2451 25.209C20.5923 24.8283 19.7879 24.8283 19.1351 25.209C18.4822 25.5897 14.9324 27.6598 14.9324 27.6598C14.2795 28.0405 13.8774 28.7441 13.8774 29.5055V34.407C13.8774 35.1684 14.2795 35.872 14.9324 36.2527L19.1351 38.7035C19.7879 39.0842 20.5923 39.0842 21.2451 38.7035L25.4478 36.2527C25.6528 36.1332 25.833 35.9818 25.9839 35.8069ZM35.2163 34.749L36.493 33.9896C36.9691 33.7065 37.2624 33.1831 37.2624 32.6167V28.9708C37.2624 28.4044 36.9691 27.8811 36.493 27.5979L33.4281 25.7749C32.9519 25.4917 32.3653 25.4917 31.8892 25.7749C31.6796 25.8996 31.0601 26.268 30.4325 26.6413M35.2163 34.749L33.4281 35.8126C32.9519 36.0958 32.3653 36.0958 31.8892 35.8126L28.8243 33.9896C28.3482 33.7065 28.0549 33.1831 28.0549 32.6167L28.0549 28.9708C28.0549 28.5357 28.228 28.126 28.524 27.8311M28.524 27.8311C28.524 27.8311 28.7139 27.6635 28.8243 27.5979C28.8243 27.5979 29.635 27.1157 30.4325 26.6413M28.524 27.8311L26.2029 26.4387C25.6871 26.1293 25.3693 25.5575 25.3693 24.9386V20.9551C25.3693 20.3363 25.6871 19.7645 26.2029 19.4551C26.2029 19.4551 29.0074 17.7727 29.5232 17.4633C30.039 17.1539 30.6745 17.1539 31.1903 17.4633L34.5106 19.4551C35.0264 19.7645 35.3442 20.3363 35.3442 20.9551V24.9386C35.3442 25.5575 34.8544 26.663 34.5106 26.4387C34.3442 26.3301 33.2077 25.4526 32.3683 25.591C31.5289 25.7293 29.0395 27.4963 28.524 27.8311ZM31.3086 44.55C31.3134 44.614 31.3159 44.6786 31.3159 44.7438C31.3159 46.1348 30.1994 47.2625 28.8222 47.2625C27.4449 47.2625 26.3285 46.1348 26.3285 44.7438C26.3285 44.6786 26.3309 44.614 26.3357 44.55M31.3086 44.55C31.2107 43.2495 30.1349 42.225 28.8222 42.225C27.5095 42.225 26.4337 43.2495 26.3357 44.55M26.3357 44.55L23.8347 44.55M23.8347 44.55V42.7446C23.8347 42.3041 23.6025 41.8971 23.2256 41.6768L20.7992 40.2589C20.4223 40.0387 19.9579 40.0387 19.581 40.2589C19.204 40.4792 17.1546 41.6768 17.1546 41.6768C16.7776 41.8971 16.5454 42.3041 16.5454 42.7446V45.5804C16.5454 46.0209 16.7776 46.4279 17.1546 46.6482L19.581 48.0661C19.9579 48.2863 20.4223 48.2863 20.7992 48.0661L23.2256 46.6482C23.6025 46.4279 23.8347 46.0209 23.8347 45.5804V44.55ZM51.0985 44.55C51.0936 44.614 51.0912 44.6786 51.0912 44.7438C51.0912 46.1348 52.2077 47.2625 53.5849 47.2625C54.9621 47.2625 56.0786 46.1348 56.0786 44.7438C56.0786 44.6786 56.0762 44.6139 56.0713 44.55M51.0985 44.55C51.1964 43.2495 52.2722 42.225 53.5849 42.225C54.8976 42.225 55.9734 43.2495 56.0713 44.55M56.0713 44.55H58.5723M58.5723 44.55V42.7446C58.5723 42.3041 58.8045 41.8971 59.1814 41.6768L61.6079 40.2589C61.9848 40.0387 62.4492 40.0387 62.8261 40.2589C63.203 40.4792 65.2525 41.6768 65.2525 41.6768C65.6294 41.8971 65.8616 42.3041 65.8616 42.7446V45.5804C65.8616 46.0209 65.6294 46.4279 65.2525 46.6482L62.8261 48.0661C62.4492 48.2863 61.9848 48.2863 61.6079 48.0661L59.1814 46.6482C58.8045 46.4279 58.5723 46.0209 58.5723 45.5804V44.55ZM56.6698 36.0496C56.1896 35.6487 55.9043 35.0484 55.9043 34.407V29.5055C55.9043 28.7441 56.3064 28.0405 56.9593 27.6598L61.162 25.209C61.8148 24.8283 62.6192 24.8283 63.272 25.209C63.9249 25.5897 67.4747 27.6598 67.4747 27.6598C68.1275 28.0405 68.5297 28.7441 68.5297 29.5055V34.407C68.5297 35.1684 68.1275 35.872 67.4747 36.2527L63.272 38.7035C62.6192 39.0842 61.8148 39.0842 61.162 38.7035L56.9593 36.2527C56.8564 36.1927 56.7596 36.1246 56.6698 36.0496ZM47.5694 34.9742L48.979 35.8126C49.4551 36.0958 50.0417 36.0958 50.5178 35.8126L53.5828 33.9896C54.0589 33.7065 54.3522 33.1831 54.3522 32.6167V28.9708C54.3522 28.5357 54.1791 28.126 53.883 27.8311M51.9745 26.6413C52.7721 27.1157 53.5828 27.5979 53.5828 27.5979C53.6932 27.6635 53.7937 27.7421 53.883 27.8311M45.7201 15.0296V18.2704C45.7201 18.7739 45.4513 19.2391 45.0148 19.4908L42.2053 21.1112C41.7689 21.3629 41.2311 21.3629 40.7947 21.1112L37.9852 19.4908C37.5487 19.2391 37.2799 18.7739 37.2799 18.2704V15.0296C37.2799 14.5261 37.5487 14.0609 37.9852 13.8092L40.7947 12.1888C41.2311 11.9371 41.7689 11.9371 42.2053 12.1888C42.6417 12.4405 45.0148 13.8092 45.0148 13.8092C45.4513 14.0609 45.7201 14.5261 45.7201 15.0296Z" stroke="black" stroke-width="2" stroke-linecap="round" stroke-linejoin="round"/>
</svg>
