<svg width="393" height="522" viewBox="0 0 393 522" fill="none" xmlns="http://www.w3.org/2000/svg">
<path d="M452.799 359.412H246.384C223.13 359.412 203.593 343.341 198.065 321.595M196.5 309.025V304.681M196.5 309.025C196.5 310.901 196.601 312.754 196.799 314.577M196.5 309.025V309.805M196.5 309.025C196.5 310.892 196.399 312.736 196.203 314.551M196.5 304.681V302.91M196.5 304.681C196.5 305.711 196.517 306.737 196.551 307.758M196.5 304.681C196.5 305.708 196.483 306.731 196.449 307.749M196.5 302.91V297.833M196.5 302.91C196.5 304.536 196.517 306.152 196.551 307.758M196.5 302.91C196.5 304.531 196.483 306.145 196.449 307.749M196.5 297.833C196.5 294.786 196.829 291.783 197.465 288.868M196.5 297.833V295.682M196.5 297.833C196.5 294.786 196.17 291.783 195.535 288.868M197.465 288.868C199.679 278.707 205.609 269.628 214.248 263.573L332.53 180.671M197.465 288.868C196.843 291.172 196.5 293.463 196.5 295.682M197.465 288.868C200.157 278.888 208.068 268.685 215.887 263.205C224.362 257.264 230.371 256.9 240.687 256.9L282.571 256.9M198.065 321.595C197.485 319.314 197.059 316.971 196.799 314.577M198.065 321.595C198.25 322.586 198.452 323.571 198.67 324.55M198.065 321.595C197.22 317.092 196.707 312.471 196.551 307.758M196.799 314.577C196.825 315.077 196.853 315.577 196.883 316.076M196.799 314.577C196.682 312.324 196.599 310.051 196.551 307.758M196.5 295.682C196.5 293.463 196.157 291.172 195.535 288.868M196.5 295.682V257.613M196.5 257.613C196.5 238.76 203.723 220.64 216.655 207.047L250.926 171.027M196.5 257.613C196.5 238.76 189.277 220.64 176.344 207.047L140.153 169.007M196.5 257.613L196.5 41.45M452.799 360.193H246.384C223.912 360.193 204.911 345.184 198.67 324.55M196.5 309.805C196.5 311.929 196.63 314.021 196.883 316.076M196.5 309.805C196.5 311.917 196.371 313.999 196.121 316.043M196.5 309.805V521M198.67 324.55C197.843 321.816 197.24 318.985 196.883 316.076M198.67 324.55C207.632 364.89 243.304 395.031 285.947 395.031L357.332 395.031M196.883 316.076C199.332 357.605 213.501 392.452 238.069 424.222C251.531 441.63 263.897 460.106 271.122 480.954L280.786 508.837M452.799 395.031L357.332 395.031M357.332 395.031C370.632 395.031 381.413 405.922 381.413 419.356V469.744M340.991 484.512V449.28C340.991 441.357 337.392 433.871 331.227 428.971L293.258 398.792C290.193 396.356 286.406 395.031 282.506 395.031M-59.7987 359.412H146.616C169.87 359.412 189.407 343.341 194.935 321.595M195.535 288.868C193.321 278.707 187.391 269.628 178.752 263.573L57.3637 178.494M195.535 288.868C192.843 278.888 184.932 268.685 177.113 263.205C168.637 257.264 162.629 256.9 152.313 256.9L105.112 256.9M194.935 321.595C195.517 319.306 195.944 316.954 196.203 314.551M194.935 321.595C194.75 322.586 194.548 323.571 194.33 324.55M194.935 321.595C195.78 317.089 196.294 312.465 196.449 307.749M196.203 314.551C196.178 315.049 196.15 315.546 196.121 316.043M196.203 314.551C196.319 312.3 196.401 310.033 196.449 307.749M-59.7987 360.193H146.616C169.088 360.193 188.088 345.184 194.33 324.55M194.33 324.55C195.16 321.806 195.765 318.963 196.121 316.043M194.33 324.55C185.368 364.89 149.696 395.031 107.053 395.031L35.6682 395.031M196.121 316.043C193.662 358.204 179.257 394.571 154.264 427.091C141.217 444.068 129.087 461.967 121.816 482.165L112.214 508.837M-59.7987 395.031L35.6682 395.031M35.6682 395.031C22.3682 395.031 11.5865 405.922 11.5865 419.356L11.5865 469.744M52.0094 484.512V449.28C52.0094 441.357 55.608 433.871 61.7726 428.971L99.742 398.792C102.807 396.356 106.594 395.031 110.494 395.031M327.605 113.556L381.414 143.094M381.414 143.094L436.942 113.556M381.414 143.094V207.011M277.365 88.5297C273.095 85.9901 268.134 86.7252 263.865 89.2647C259.596 91.8043 236.082 104.878 236.082 104.878C231.812 107.417 229.182 112.11 229.182 117.19V149.885C229.182 154.965 231.812 159.658 236.082 162.197L250.926 171.027M277.365 88.5297C279.245 89.6481 284.8 92.9519 290.427 96.2995M277.365 88.5297C284.892 92.9219 307.541 106.969 307.541 106.969M277.365 88.5297C269.838 84.1375 261.4 90.8833 253.858 94.4823C249.233 91.7076 246.384 86.5798 246.384 81.0304V45.3071C246.384 39.7577 249.233 34.6299 253.858 31.8552L283.632 13.9935C288.258 11.2188 293.956 11.2188 298.581 13.9935C303.207 16.7682 328.356 31.8552 328.356 31.8552C332.981 34.6299 335.83 39.7577 335.83 45.3071V81.0304C335.83 86.5798 332.981 91.7076 328.356 94.4823L307.541 106.969M247.916 38.4573L290.427 62.4627M290.427 62.4627L334.298 38.4573M290.427 62.4627V96.2995M230.597 110.92L269.838 132.891M269.838 132.891L310.334 110.92M269.838 132.891V180.435M159.954 -13.4043L195.925 6.1256M195.925 6.1256L233.046 -13.4043M195.925 6.1256V48.3869M350.711 235.834L381.777 252.922M381.777 252.922L413.836 235.834M381.777 252.922V289.901M60.0779 113.556L6.26951 143.094M6.26951 143.094L-49.259 113.556M6.26951 143.094L6.26951 207.011M139.767 38.4573L97.2557 62.4627M97.2557 62.4627L53.3849 38.4573M97.2557 62.4627V96.2995M157.087 110.92L117.845 132.891M117.845 132.891L77.3488 110.92M117.845 132.891V180.435M36.9723 235.834L5.90607 252.922M5.90607 252.922L-26.1533 235.834M5.90607 252.922V289.901M270.465 326.4H470M122.535 326.4H-77M57.3637 178.494C60.3197 175.065 62.017 170.625 62.017 165.94V121.985C62.017 115.156 58.4106 108.847 52.5563 105.433L14.8701 83.4547C9.01584 80.0406 1.80306 80.0406 -4.05124 83.4547C-9.90554 86.8689 -41.7374 105.433 -41.7374 105.433C-47.5917 108.847 -51.1981 115.156 -51.1981 121.985L-51.1981 165.94C-51.1981 172.769 -47.5917 179.078 -41.7374 182.492L-4.05124 204.47C1.80306 207.884 9.01584 207.884 14.8701 204.47L52.5563 182.492C54.3944 181.42 56.0108 180.063 57.3637 178.494ZM140.153 169.007L151.601 162.197C155.871 159.658 158.501 154.965 158.501 149.885V117.19C158.501 112.11 155.871 107.417 151.601 104.878L124.117 88.5297C119.848 85.9901 114.588 85.9901 110.318 88.5297C108.438 89.6481 102.884 92.9519 97.2557 96.2995M140.153 169.007L124.117 178.545C119.848 181.085 114.588 181.085 110.318 178.545L82.8342 162.197C78.5648 159.658 75.9347 154.965 75.9347 149.885V117.19C75.9347 113.288 77.4867 109.614 80.1417 106.969M80.1417 106.969C80.1417 106.969 81.8445 105.466 82.8342 104.878C82.8342 104.878 90.1042 100.553 97.2557 96.2995M80.1417 106.969L59.3274 94.4823C54.7022 91.7076 51.8529 86.5798 51.8529 81.0304V45.3071C51.8529 39.7577 54.7022 34.6299 59.3274 31.8552C59.3274 31.8552 84.4764 16.7682 89.1017 13.9935C93.7269 11.2188 99.4254 11.2188 104.051 13.9935L133.825 31.8552C138.45 34.6299 141.299 39.7577 141.299 45.3071V81.0304C141.299 86.5798 136.907 96.4941 133.825 94.4823C132.333 93.5083 122.141 85.6393 114.614 86.8801C107.087 88.121 84.7637 103.967 80.1417 106.969ZM105.112 256.9C105.155 257.474 105.177 258.053 105.177 258.638C105.177 271.112 95.1652 281.225 82.8152 281.225C70.4652 281.225 60.4535 271.112 60.4535 258.638C60.4535 258.053 60.4755 257.473 60.5187 256.9M105.112 256.9C104.233 245.237 94.5864 236.05 82.8152 236.05C71.044 236.05 61.397 245.237 60.5187 256.9M60.5187 256.9L38.0919 256.9M38.0919 256.9V240.71C38.0919 236.76 36.0097 233.109 32.6298 231.134L10.8716 218.419C7.49166 216.444 3.32736 216.444 -0.0526199 218.419C-3.4326 220.394 -21.8107 231.134 -21.8107 231.134C-25.1907 233.109 -27.2729 236.76 -27.2729 240.71V266.14C-27.2729 270.09 -25.1907 273.741 -21.8107 275.716L-0.0526199 288.431C3.32736 290.406 7.49166 290.406 10.8716 288.431L32.6298 275.716C36.0097 273.741 38.0919 270.09 38.0919 266.14V256.9ZM282.571 256.9C282.528 257.473 282.506 258.053 282.506 258.638C282.506 271.112 292.518 281.225 304.868 281.225C317.218 281.225 327.23 271.112 327.23 258.638C327.23 258.053 327.208 257.473 327.164 256.9M282.571 256.9C283.45 245.237 293.097 236.05 304.868 236.05C316.639 236.05 326.286 245.237 327.164 256.9M327.164 256.9H349.591M349.591 256.9L349.591 240.71C349.591 236.759 351.673 233.109 355.053 231.134L376.811 218.419C380.191 216.444 384.356 216.444 387.736 218.419C391.116 220.394 409.494 231.134 409.494 231.134C412.874 233.109 414.956 236.759 414.956 240.71L414.956 266.14C414.956 270.09 412.874 273.741 409.494 275.716L387.736 288.431C384.356 290.406 380.191 290.406 376.811 288.431L355.053 275.716C351.673 273.741 349.591 270.09 349.591 266.14V256.9ZM332.53 180.671C328.225 177.075 325.666 171.692 325.666 165.94V121.985C325.666 115.156 329.272 108.847 335.127 105.433L372.813 83.4547C378.667 80.0406 385.88 80.0406 391.734 83.4547C397.589 86.8689 429.421 105.433 429.421 105.433C435.275 108.847 438.881 115.156 438.881 121.985V165.94C438.881 172.769 435.275 179.078 429.421 182.492L391.734 204.47C385.88 207.884 378.667 207.884 372.813 204.47L335.127 182.492C334.204 181.954 333.336 181.344 332.53 180.671ZM250.926 171.027L263.566 178.545C267.835 181.085 273.095 181.085 277.365 178.545L304.849 162.197C309.118 159.658 311.748 154.965 311.748 149.885V117.19C311.748 113.288 310.196 109.614 307.541 106.969M290.427 96.2995C297.579 100.553 304.849 104.878 304.849 104.878C305.839 105.466 306.74 106.171 307.541 106.969M234.343 -7.83152V21.2315C234.343 25.7463 231.932 29.9181 228.018 32.1754L202.825 46.707C198.911 48.9643 194.089 48.9643 190.175 46.707L164.982 32.1754C161.068 29.9181 158.657 25.7463 158.657 21.2315V-7.83152C158.657 -12.3463 161.068 -16.5181 164.982 -18.7754L190.175 -33.307C194.089 -35.5643 198.911 -35.5643 202.825 -33.307C206.738 -31.0496 228.018 -18.7754 228.018 -18.7754C231.932 -16.5181 234.343 -12.3463 234.343 -7.83152Z" stroke="#D8FFDC" stroke-width="2" stroke-linecap="round" stroke-linejoin="round"/>
</svg>
